<?xml version="1.0" standalone="no"?>
<!DOCTYPE svg PUBLIC "-//W3C//DTD SVG 20010904//EN"
 "http://www.w3.org/TR/2001/REC-SVG-20010904/DTD/svg10.dtd">
<svg version="1.0" xmlns="http://www.w3.org/2000/svg"
 width="1200.000000pt" height="600.000000pt" viewBox="0 0 1200.000000 600.000000"
 preserveAspectRatio="xMidYMid meet">
<metadata>
Created by potrace 1.15, written by Peter Selinger 2001-2017
</metadata>
<g transform="translate(0.000000,600.000000) scale(0.100000,-0.100000)"
fill="#000000" stroke="none">
<path d="M0 3000 l0 -3000 6000 0 6000 0 0 3000 0 3000 -6000 0 -6000 0 0
-3000z m6092 1638 l3 -813 27 -55 c50 -101 107 -119 376 -120 l153 0 -3 -147
-3 -148 -265 1 c-159 0 -285 5 -316 12 -149 33 -241 97 -293 205 -73 148 -81
249 -81 995 l0 582 -200 0 -200 0 0 150 0 150 400 0 399 0 3 -812z m1660 10
l3 -803 23 -56 c46 -115 86 -131 340 -137 l192 -4 0 -150 0 -151 -272 6 c-292
6 -355 14 -446 61 -101 52 -170 152 -208 301 -16 63 -18 139 -21 753 l-4 682
-200 0 -199 0 0 150 0 150 395 0 394 0 3 -802z m-6922 347 l0 -375 -170 0
-170 0 0 375 0 375 170 0 170 0 0 -375z m690 0 l0 -375 -170 0 -170 0 0 375 0
375 170 0 170 0 0 -375z m900 -10 l0 -385 250 0 250 0 0 385 0 385 200 0 200
0 -2 -1007 -3 -1008 -197 -3 -198 -2 0 450 0 450 -250 0 -250 0 0 -450 0 -450
-197 2 -198 3 -3 1008 -2 1007 200 0 200 0 0 -385z m2080 -96 c212 -34 381
-154 469 -333 58 -118 73 -193 78 -393 l5 -183 -511 0 -511 0 0 -33 c0 -99 53
-199 135 -253 70 -46 149 -64 281 -65 170 0 296 32 461 115 40 20 75 36 78 36
3 0 4 -80 3 -177 l-3 -178 -95 -32 c-154 -51 -231 -64 -418 -70 -262 -8 -410
25 -556 124 -180 123 -272 319 -283 608 -13 338 93 590 308 734 141 94 357
133 559 100z m5055 -19 c226 -70 378 -238 447 -491 20 -75 23 -105 22 -274 0
-163 -4 -201 -22 -270 -37 -134 -96 -239 -182 -326 -134 -135 -239 -179 -451
-186 -239 -9 -372 38 -515 181 -131 132 -194 279 -213 499 -26 301 46 543 209
708 87 87 197 148 315 174 102 21 298 14 390 -15z m-1805 -2942 c0 -480 4
-787 11 -828 14 -90 43 -146 92 -178 40 -27 42 -27 249 -30 l208 -3 0 -150 0
-149 -273 0 c-235 0 -283 3 -345 19 -168 44 -257 141 -307 336 -17 63 -19 135
-22 753 l-4 682 -200 0 -199 0 0 155 0 155 395 0 395 0 0 -762z m2210 -298 l0
-1050 -195 0 -195 0 0 112 0 113 -36 -55 c-99 -152 -210 -207 -398 -197 -115
6 -168 22 -246 75 -191 132 -289 446 -259 837 28 377 180 606 436 655 189 37
356 -27 459 -175 l39 -57 3 396 2 396 195 0 195 0 0 -1050z m-7705 243 c38
-397 73 -724 76 -727 3 -3 43 205 90 462 l85 467 165 0 164 0 100 -474 c82
-390 101 -466 107 -435 4 22 30 353 59 737 l53 697 173 0 c95 0 173 -4 173 -8
0 -4 -52 -457 -115 -1005 -63 -548 -115 -999 -115 -1002 0 -3 -83 -5 -184 -5
l-184 0 -10 48 c-98 459 -218 1002 -222 1002 -3 0 -53 -235 -111 -522 l-105
-523 -182 -3 -182 -2 -4 22 c-3 13 -57 451 -121 973 -64 523 -119 967 -122
988 l-6 37 174 -2 173 -3 71 -722z m8565 352 l0 -375 -170 0 -170 0 0 375 0
375 170 0 170 0 0 -375z m690 0 l0 -375 -170 0 -170 0 0 375 0 375 170 0 170
0 0 -375z m-7008 -110 c270 -56 464 -274 518 -583 18 -103 13 -323 -10 -432
-28 -135 -92 -261 -180 -353 -78 -82 -147 -127 -252 -165 -67 -24 -86 -26
-238 -26 -156 -1 -169 1 -245 27 -295 104 -455 370 -455 757 0 270 68 459 221
612 77 77 191 138 304 162 92 19 246 20 337 1z m2056 0 c35 -8 86 -25 113 -36
l49 -21 0 -184 0 -183 -57 35 c-76 45 -139 64 -243 71 -210 14 -369 -69 -432
-226 -22 -55 -23 -67 -28 -521 l-5 -465 -195 0 -195 0 0 755 0 755 195 0 195
0 5 -115 c5 -111 5 -114 19 -81 22 51 118 144 181 174 117 56 269 72 398 42z"/>
<path d="M4258 4587 c-124 -35 -186 -113 -222 -279 l-6 -28 316 0 317 0 -7 48
c-23 170 -112 256 -276 267 -47 3 -92 0 -122 -8z"/>
<path d="M9233 4565 c-88 -38 -161 -146 -190 -278 -22 -104 -13 -328 16 -419
57 -177 196 -267 346 -223 142 41 221 184 232 420 15 322 -101 515 -307 515
-36 -1 -79 -7 -97 -15z"/>
<path d="M9205 1781 c-116 -54 -184 -217 -185 -446 0 -291 103 -468 274 -469
100 0 166 46 222 155 78 155 75 480 -5 638 -27 51 -84 109 -127 127 -47 20
-131 17 -179 -5z"/>
<path d="M4223 1789 c-132 -65 -201 -245 -190 -494 8 -177 47 -286 129 -362
54 -49 104 -67 180 -67 123 1 223 87 269 234 29 90 37 314 15 417 -27 131 -96
234 -181 274 -57 27 -167 26 -222 -2z"/>
</g>
</svg>
